<svg width="50" height="50" viewBox="0 0 50 50" fill="none" xmlns="http://www.w3.org/2000/svg">
<path d="M49 25C49 38.2548 38.2548 49 25 49C11.7452 49 1 38.2548 1 25C1 11.7452 11.7452 1 25 1C38.2548 1 49 11.7452 49 25Z" fill="#7943A4" stroke="#D1A9F0" stroke-width="2"/>
<path d="M50 25C50 11.1929 38.8071 1.14441e-05 25 1.14441e-05C11.1929 1.14441e-05 0 11.1929 0 25C0 38.8071 11.1929 50 25 50C38.8071 50 50 38.8071 50 25Z" stroke="ECECEC"/>
<path d="M33.3333 26.6667L25 18.3333L16.6667 26.6667" stroke="white"/>
</svg>
